<?xml version="1.0"?>
<svg xmlns="http://www.w3.org/2000/svg" viewBox="0 0 512 512" width="512" height="512"><g id="Out_line" data-name="Out line"><path d="M496,144V80a7.99977,7.99977,0,0,0-8-8h-8V48a7.99977,7.99977,0,0,0-8-8H440a7.99927,7.99927,0,0,0-6.3999,3.2002L412.00024,72H83.99976L62.3999,43.2002A7.99927,7.99927,0,0,0,56,40H32a7.99977,7.99977,0,0,0-8,8V72a7.99977,7.99977,0,0,0-8,8v96a7.99977,7.99977,0,0,0,8,8H80v24a7.99977,7.99977,0,0,0,8,8h88v8a7.99977,7.99977,0,0,0,8,8h56v16a32.036,32.036,0,0,0,32,32h70.4646l4.21051,16H344a8,8,0,0,0,0,16h6.88562l6.439,24.468A7.99567,7.99567,0,0,0,360,352h1.41193l2.68377,10.19824a46.86025,46.86025,0,0,1-.86377,26.80811A62.85689,62.85689,0,0,0,360,408.9209V424a7.99977,7.99977,0,0,0,8,8h6.24152l-6.08625,30.43115A8.00053,8.00053,0,0,0,376,472H480a8.00053,8.00053,0,0,0,7.84473-9.56885L481.75848,432H488a7.99977,7.99977,0,0,0,8-8,336.6893,336.6893,0,0,0-18.94873-111.49854l-22.55078-64.43017A64.3959,64.3959,0,0,1,467.43115,184H472a23.99445,23.99445,0,0,0,21.6546-34.34106A7.97454,7.97454,0,0,0,496,144Zm-160,8h16v16H336ZM32,136V88H480v48Zm144,32H96V152h80ZM444,56h20V72H432ZM40,56H52L64,72H40Zm-8,96H80v16H32Zm64,48V184h80v16Zm176,64a16.01833,16.01833,0,0,1-16-16V232h46.81464a27.93,27.93,0,0,1-1.74726,20.42236l14.31153,7.15528A43.97615,43.97615,0,0,0,319.23419,232H329.833l8.42108,32Zm110.01837,72h-8.27215l-6.31574-24h8.2721ZM470.2417,456H385.7583l4.80029-24h74.88282ZM472,168H416v16h31.43469a80.51443,80.51443,0,0,0-8.03576,69.35693l22.55078,64.42969A320.64954,320.64954,0,0,1,479.90137,416H376v-7.0791a46.88823,46.88823,0,0,1,2.41064-14.85449,62.818,62.818,0,0,0,1.15821-35.94043L377.95673,352h8.27215l1.0763,4.08984A70.79959,70.79959,0,0,1,386,396.59717q-.18237.54639-.34814,1.09717A8.0003,8.0003,0,0,0,393.31249,408h69.749a8,8,0,0,0,7.97559-8.626,313.31464,313.31464,0,0,0-16.63818-78.94433l-22.55127-64.43018a87.06379,87.06379,0,0,1-4.832-31.7373l-15.99121-.52442a102.99528,102.99528,0,0,0,5.72168,37.54737l22.55127,64.43017A297.53561,297.53561,0,0,1,454.28174,392H403.79492a86.72341,86.72341,0,0,0-1.01611-39.98242L368.5542,221.96387l-15.47363,4.07226L371.49207,296H363.22l-19.48315-74.03613A8.00076,8.00076,0,0,0,336,216H192V152H320v24a7.99977,7.99977,0,0,0,8,8h32a7.99977,7.99977,0,0,0,8-8V152H472a8,8,0,0,1,0,16Z"/><rect x="56" y="104" width="32" height="16"/><rect x="104" y="104" width="64" height="16"/><rect x="224" y="168" width="16" height="16"/></g></svg>
